Coordinates
version=1
nRows=6
nColumns=53
inDegrees=yes

Units are S.I. units (second, meters, Newtons, ...)
If the header above contains a line with 'inDegrees', this indicates whether rotational values are in degrees (yes) or radians (no).

endheader
time	pelvis_tilt	pelvis_list	pelvis_rot	pelvis_tx	pelvis_ty	pelvis_tz	hip_flex_r	hip_add_r	hip_rot_r	pf_flex_r	pf_rot_r	pf_tilt_r	pf_tx_r	pf_ty_r	pf_tz_r	knee_flex_r	knee_add_r	knee_rot_r	knee_tx_r	knee_ty_r	knee_tz_r	ankle_flex_r	subt_angle_r	mtp_angle_r	hip_flex_l	hip_add_l	hip_rot_l	pf_l_r3	pf_l_tx	pf_l_ty	knee_flex_l	ankle_flex_l	subt_angle_l	mtp_angle_l	lumbar_ext	lumbar_latbend	lumbar_rot	neck_ext	neck_latbend	neck_rot	arm_add_r	arm_flex_r	arm_rot_r	elbow_flex_r	pro_sup_r	wrist_flex_r	arm_add_l	arm_flex_l	arm_rot_l	elbow_flex_l	pro_sup_l	wrist_flex_l
      6.00000000	    -10.92386297	     -2.24253326	      8.42290176	      1.08217472	      0.87419994	      0.21781902	     11.29050931	      0.21119717	    -12.28492120	      0.00000000	      0.00000000	      0.00000000	      0.00092502	      0.00008727	      0.00006981	      5.44738237	      0.00002506	      0.00008886	     -0.00000151	     -0.00001177	     -0.00000204	      9.16525996	     -2.49345184	      0.00000000	     12.95821044	     -0.87074003	     -7.27083520	      0.06513700	      0.00077405	     -0.00730790	      0.05323693	      0.04014281	     -0.19336076	      0.00000000	      5.73290939	     -0.01619374	    -12.37288934	      0.00000000	      0.00000000	      0.00000000	      0.00000000	      0.00000000	      0.00000000	      0.00000000	     60.00000000	      0.00000000	      0.00000000	      0.00000000	      0.00000000	      0.00000000	     60.00000000	      0.00000000
      6.00400000	    -10.93062610	     -2.24023558	      8.42315864	      1.08223827	      0.87419318	      0.21782109	     11.28269826	      0.21099920	    -12.28089509	      0.00000000	      0.00000000	      0.00000000	      0.00092502	      0.00008727	      0.00006981	      5.42656091	      0.00002518	      0.00008933	     -0.00000152	     -0.00001176	     -0.00000203	      9.16854806	     -2.49095495	      0.00000000	     12.94858764	     -0.87303196	     -7.21841479	      0.06513700	      0.00077405	     -0.00730790	      0.05264146	      0.04023858	     -0.19320989	      0.00000000	      5.74827358	     -0.02890487	    -12.36650318	      0.00000000	      0.00000000	      0.00000000	      0.00000000	      0.00000000	      0.00000000	      0.00000000	     60.00000000	      0.00000000	      0.00000000	      0.00000000	      0.00000000	      0.00000000	     60.00000000	      0.00000000
      6.00800000	    -10.92207987	     -2.23612914	      8.40785006	      1.08223587	      0.87420230	      0.21783772	     11.27629414	      0.21102976	    -12.25643018	      0.00000000	      0.00000000	      0.00000000	      0.00092502	      0.00008727	      0.00006981	      5.42882772	      0.00002513	      0.00008886	     -0.00000152	     -0.00001175	     -0.00000204	      9.16208882	     -2.48143312	      0.00000000	     12.93992466	     -0.87044587	     -7.13397720	      0.06513700	      0.00077405	     -0.00730790	      0.05264749	      0.04018784	     -0.19222866	      0.00000000	      5.72847221	     -0.03094025	    -12.34216811	      0.00000000	      0.00000000	      0.00000000	      0.00000000	      0.00000000	      0.00000000	      0.00000000	     60.00000000	      0.00000000	      0.00000000	      0.00000000	      0.00000000	      0.00000000	     60.00000000	      0.00000000
      6.01200000	    -10.92218418	     -2.23684234	      8.40758989	      1.08224138	      0.87419944	      0.21782975	     11.27620447	      0.21088294	    -12.25646671	      0.00000000	      0.00000000	      0.00000000	      0.00092502	      0.00008727	      0.00006981	      5.42881740	      0.00002535	      0.00008886	     -0.00000151	     -0.00001173	     -0.00000205	      9.16210443	     -2.48145937	      0.00000000	     12.93984216	     -0.87061651	     -7.13411188	      0.06513700	      0.00077405	     -0.00730790	      0.05264489	      0.04018850	     -0.19222386	      0.00000000	      5.72858012	     -0.03115430	    -12.34222070	      0.00000000	      0.00000000	      0.00000000	      0.00000000	      0.00000000	      0.00000000	      0.00000000	     60.00000000	      0.00000000	      0.00000000	      0.00000000	      0.00000000	      0.00000000	     60.00000000	      0.00000000
      6.01600000	    -10.92845452	     -2.24314418	      8.41487254	      1.08227533	      0.87419101	      0.21783093	     11.27528766	      0.21774810	    -12.26163241	      0.00000000	      0.00000000	      0.00000000	      0.00092502	      0.00008727	      0.00006981	      5.41788863	      0.00002541	      0.00008889	     -0.00000152	     -0.00001175	     -0.00000204	      9.16423221	     -2.48486797	      0.00000000	     12.94330434	     -0.86416362	     -7.13807771	      0.06513700	      0.00077405	     -0.00730790	      0.05254613	      0.04055168	     -0.18974813	      0.00000000	      5.74166257	     -0.03526643	    -12.35026014	      0.00000000	      0.00000000	      0.00000000	      0.00000000	      0.00000000	      0.00000000	      0.00000000	     60.00000000	      0.00000000	      0.00000000	      0.00000000	      0.00000000	      0.00000000	     60.00000000	      0.00000000
      6.02000000	    -10.94049341	     -2.24365405	      8.41617931	      1.08225147	      0.87417962	      0.21784055	     11.29516396	      0.21556912	    -12.26625719	      0.00000000	      0.00000000	      0.00000000	      0.00092502	      0.00008727	      0.00006981	      5.42874626	      0.00002521	      0.00008856	     -0.00000151	     -0.00001175	     -0.00000205	      9.17369826	     -2.49277884	      0.00000000	     12.97909666	     -0.86560958	     -7.58025172	      0.06513700	      0.00077405	     -0.00730790	      0.05440807	      0.04176593	     -0.18842894	      0.00000000	      5.75279573	     -0.03885196	    -12.35559763	      0.00000000	      0.00000000	      0.00000000	      0.00000000	      0.00000000	      0.00000000	      0.00000000	     60.00000000	      0.00000000	      0.00000000	      0.00000000	      0.00000000	      0.00000000	     60.00000000	      0.00000000
